<svg width="21" height="20" viewBox="0 0 21 20" fill="none" xmlns="http://www.w3.org/2000/svg">
<path d="M21 18.954L15.134 13.3673C16.5436 11.7556 17.2466 9.68835 17.0966 7.59562C16.9466 5.50288 15.9552 3.54579 14.3287 2.13146C12.7022 0.717125 10.5657 -0.0455437 8.36381 0.00210549C6.1619 0.0497547 4.06404 0.904053 2.50665 2.38728C0.949256 3.87051 0.0522424 5.86847 0.00221076 7.96554C-0.0478209 10.0626 0.752981 12.0973 2.23803 13.6464C3.72307 15.1954 5.77803 16.1396 7.9754 16.2825C10.1728 16.4253 12.3434 15.7558 14.0357 14.4133L19.9017 20L21 18.954ZM1.58127 8.16382C1.58127 6.84703 1.99127 5.5598 2.75943 4.46492C3.52758 3.37004 4.61938 2.51669 5.89678 2.01277C7.17417 1.50886 8.57977 1.37701 9.93584 1.6339C11.2919 1.8908 12.5375 2.5249 13.5152 3.45601C14.4929 4.38713 15.1587 5.57345 15.4284 6.86494C15.6982 8.15644 15.5597 9.49511 15.0306 10.7117C14.5015 11.9282 13.6055 12.9681 12.4559 13.6996C11.3062 14.4312 9.95465 14.8217 8.57202 14.8217C6.71859 14.8197 4.94166 14.1176 3.63109 12.8695C2.32051 11.6213 1.58333 9.92899 1.58127 8.16382Z" fill="#F1FAEE"/>
</svg>
